# xmcd CD database file
#
# Track frame offsets:
#	182
#	16295
#	45487
#	65802
#	83622
#	100480
#	120825
#	141762
#	158232
#	181337
#	217695
#
# Disc length: 3206 seconds
#
# Revision: 2
# Processed by: cddbd v1.4PL0 Copyright (c) Steve Scherf et al.
# Submitted via: CDex 1.51
#
DISCID=870c840b
DTITLE=Sally Oldfield - Milestones 1
DYEAR=1989
DGENRE=New Age
TTITLE0=Mirrors
TTITLE1=Water Bearer
TTITLE2=Sun In My Eyes
TTITLE3=Sons Of The Free
TTITLE4=You Set My Gipsy Blood Free
TTITLE5=Hide And Seek
TTITLE6=First Born On The Earth
TTITLE7=The Boulevard Song
TTITLE8=Celebration
TTITLE9=Blue Water
TTITLE10=Playing In The Flame
EXTD=1989 Castle YEAR: 1989
EXTT0=
EXTT1=
EXTT2=
EXTT3=
EXTT4=
EXTT5=
EXTT6=
EXTT7=
EXTT8=
EXTT9=
EXTT10=
PLAYORDER=
